<?xml version="1.0" encoding="UTF-8"?>
<svg width="800px" height="600px" viewBox="0 0 800 600" xmlns="http://www.w3.org/2000/svg" xmlns:xlink="http://www.w3.org/1999/xlink">
  <defs>
    <filter x="-10%" y="-10%" width="120%" height="120%" filterUnits="objectBoundingBox" id="shadow">
      <feOffset dx="0" dy="4" in="SourceAlpha" result="shadowOffsetOuter1"/>
      <feGaussianBlur stdDeviation="5" in="shadowOffsetOuter1" result="shadowBlurOuter1"/>
      <feColorMatrix values="0 0 0 0 0   0 0 0 0 0   0 0 0 0 0  0 0 0 0.2 0" type="matrix" in="shadowBlurOuter1"/>
    </filter>
    <linearGradient id="githubGrad" x1="0%" y1="0%" x2="100%" y2="100%">
      <stop offset="0%" stop-color="#2E73B7" />
      <stop offset="100%" stop-color="#163F65" />
    </linearGradient>
    <linearGradient id="supabaseGrad" x1="0%" y1="0%" x2="100%" y2="100%">
      <stop offset="0%" stop-color="#3ECF8E" />
      <stop offset="100%" stop-color="#1A8564" />
    </linearGradient>
    <linearGradient id="nextjsGrad" x1="0%" y1="0%" x2="100%" y2="100%">
      <stop offset="0%" stop-color="#505050" />
      <stop offset="100%" stop-color="#000000" />
    </linearGradient>
  </defs>

  <!-- Background -->
  <rect width="800" height="600" fill="#F9FAFB" />

  <!-- GitHub Repository Box -->
  <rect x="100" y="100" width="200" height="140" rx="8" fill="url(#githubGrad)" filter="url(#shadow)" />
  <text x="200" y="140" font-family="Arial" font-size="16" fill="white" text-anchor="middle">GitHub Repository</text>
  <text x="200" y="165" font-family="Arial" font-size="14" fill="white" text-anchor="middle">CodePilotRules</text>
  <text x="200" y="190" font-family="Arial" font-size="12" fill="white" text-anchor="middle">MDC Rule Files</text>
  <text x="200" y="210" font-family="Arial" font-size="12" fill="white" text-anchor="middle">(Source of Truth)</text>

  <!-- Supabase Database Box -->
  <rect x="400" y="300" width="200" height="140" rx="8" fill="url(#supabaseGrad)" filter="url(#shadow)" />
  <text x="500" y="340" font-family="Arial" font-size="16" fill="white" text-anchor="middle">Supabase Database</text>
  <text x="500" y="365" font-family="Arial" font-size="14" fill="white" text-anchor="middle">rules_hub Schema</text>
  <text x="500" y="390" font-family="Arial" font-size="12" fill="white" text-anchor="middle">Structured Rule Data</text>
  <text x="500" y="410" font-family="Arial" font-size="12" fill="white" text-anchor="middle">(Optimized for Queries)</text>

  <!-- Hub Web App Box -->
  <rect x="600" y="100" width="200" height="140" rx="8" fill="url(#nextjsGrad)" filter="url(#shadow)" />
  <text x="700" y="140" font-family="Arial" font-size="16" fill="white" text-anchor="middle">Web Application</text>
  <text x="700" y="165" font-family="Arial" font-size="14" fill="white" text-anchor="middle">CodePilotRulesHub</text>
  <text x="700" y="190" font-family="Arial" font-size="12" fill="white" text-anchor="middle">Next.js Frontend</text>
  <text x="700" y="210" font-family="Arial" font-size="12" fill="white" text-anchor="middle">(User Interface)</text>

  <!-- Sync Service Box -->
  <rect x="100" y="300" width="200" height="140" rx="8" fill="#6366F1" filter="url(#shadow)" />
  <text x="200" y="340" font-family="Arial" font-size="16" fill="white" text-anchor="middle">Sync Service</text>
  <text x="200" y="365" font-family="Arial" font-size="14" fill="white" text-anchor="middle">GitHub ↔ Supabase</text>
  <text x="200" y="390" font-family="Arial" font-size="12" fill="white" text-anchor="middle">Edge Functions</text>
  <text x="200" y="410" font-family="Arial" font-size="12" fill="white" text-anchor="middle">API Routes</text>

  <!-- Arrows -->
  <!-- GitHub to Sync -->
  <path d="M200,240 L200,300" stroke="#4B5563" stroke-width="2" fill="none" />
  <polygon points="200,295 195,285 205,285" fill="#4B5563" />
  <text x="160" y="270" font-family="Arial" font-size="12" fill="#4B5563">Pull Data</text>

  <!-- Sync to Supabase -->
  <path d="M300,370 L400,370" stroke="#4B5563" stroke-width="2" fill="none" />
  <polygon points="395,370 385,365 385,375" fill="#4B5563" />
  <text x="350" y="360" font-family="Arial" font-size="12" fill="#4B5563">Insert/Update</text>

  <!-- Supabase to Web App -->
  <path d="M500,300 L650,240" stroke="#4B5563" stroke-width="2" fill="none" />
  <polygon points="645,242 636,235 639,245" fill="#4B5563" />
  <text x="550" y="250" font-family="Arial" font-size="12" fill="#4B5563">Fetch/Query</text>

  <!-- GitHub to Web App (Webhook) -->
  <path d="M230,100 C300,30 500,30 670,100" stroke="#6366F1" stroke-width="2" stroke-dasharray="5,5" fill="none" />
  <polygon points="665,97 656,90 659,105" fill="#6366F1" />
  <text x="400" y="50" font-family="Arial" font-size="12" fill="#6366F1">GitHub Webhooks</text>

  <!-- Legend -->
  <rect x="620" y="500" width="160" height="80" rx="5" fill="white" stroke="#E5E7EB" />
  <text x="700" y="520" font-family="Arial" font-size="14" fill="#111827" text-anchor="middle" font-weight="bold">Legend</text>

  <rect x="640" y="535" width="12" height="12" rx="2" fill="#6366F1" />
  <text x="695" y="545" font-family="Arial" font-size="12" fill="#111827">Sync Process</text>

  <line x1="640" y1="565" x2="660" y2="565" stroke="#4B5563" stroke-width="2" />
  <text x="695" y="568" font-family="Arial" font-size="12" fill="#111827">Data Flow</text>

  <line x1="640" y1="585" x2="660" y2="585" stroke="#6366F1" stroke-width="2" stroke-dasharray="5,5" />
  <text x="695" y="588" font-family="Arial" font-size="12" fill="#111827">Event Trigger</text>
</svg>
